<?xml version="1.0" standalone="no"?>
<!DOCTYPE svg PUBLIC "-//W3C//DTD SVG 20010904//EN"
 "http://www.w3.org/TR/2001/REC-SVG-20010904/DTD/svg10.dtd">
<svg version="1.0" xmlns="http://www.w3.org/2000/svg"
 width="640.000000pt" height="640.000000pt" viewBox="0 0 640.000000 640.000000"
 preserveAspectRatio="xMidYMid meet">
<metadata>
Created by potrace 1.14, written by Peter Selinger 2001-2017
</metadata>
<g transform="translate(0.000000,640.000000) scale(0.100000,-0.100000)"
fill="#000000" stroke="none">
<path d="M539 5755 c-3 -2 -18 -6 -35 -9 -167 -30 -351 -174 -433 -339 -76
-155 -71 19 -68 -2222 1 -1105 6 -2021 10 -2035 4 -14 9 -36 12 -49 2 -13 23
-63 47 -109 32 -66 60 -103 120 -164 44 -43 85 -78 93 -78 8 0 15 -4 15 -9 0
-13 143 -72 212 -87 52 -11 524 -13 2693 -13 2313 -1 2637 1 2690 14 79 20 74
19 120 40 22 10 43 19 47 19 4 1 13 7 20 13 6 7 16 13 20 13 22 0 188 165 188
187 0 7 4 13 9 13 15 0 71 135 89 215 9 38 9 4038 1 4085 -10 55 -38 129 -73
195 -33 63 -175 215 -201 215 -8 0 -15 4 -15 9 0 13 -134 70 -203 86 -53 13
-426 15 -2708 15 -1455 0 -2648 -2 -2650 -5z m5221 -696 c0 -29 -1 -82 -2
-117 -2 -34 -1 -62 2 -62 3 0 4 -24 3 -52 -1 -29 -2 -64 -3 -78 -1 -22 -1 -94
-1 -125 0 -5 1 -39 2 -75 l2 -65 -39 -27 c-21 -15 -50 -34 -64 -41 -14 -8
-130 -80 -258 -160 -128 -81 -237 -147 -242 -147 -4 0 -10 -3 -12 -8 -4 -9
-217 -142 -228 -142 -5 0 -10 -3 -12 -8 -3 -6 -309 -202 -331 -211 -5 -2 -42
-25 -83 -52 -40 -27 -76 -49 -79 -49 -2 0 -34 -20 -70 -45 -36 -24 -65 -41
-65 -37 0 4 -4 2 -8 -3 -4 -6 -100 -69 -215 -140 -114 -72 -220 -138 -235
-148 -15 -9 -35 -20 -44 -23 -10 -4 -18 -10 -18 -15 0 -5 -4 -9 -10 -9 -5 0
-47 -25 -94 -55 -46 -30 -89 -55 -94 -55 -6 0 -12 -3 -14 -8 -4 -10 -166 -112
-178 -112 -6 0 -10 -4 -10 -10 0 -5 -4 -10 -10 -10 -5 0 -41 -20 -80 -45 l-70
-46 -55 36 c-30 19 -59 35 -64 35 -5 0 -11 3 -13 8 -1 4 -32 25 -68 47 -36 21
-71 45 -78 52 -7 7 -20 13 -28 13 -8 0 -14 5 -14 10 0 6 -5 10 -11 10 -6 0
-30 14 -54 30 -24 17 -48 30 -53 30 -6 0 -12 3 -14 8 -2 6 -249 164 -353 225
-11 7 -45 29 -77 50 -31 20 -62 37 -67 37 -6 0 -11 5 -11 10 0 6 -4 10 -9 10
-5 0 -102 59 -215 130 -114 72 -211 130 -216 130 -6 0 -10 4 -10 8 0 5 -12 15
-27 23 -37 19 -655 405 -670 418 -7 6 -15 11 -18 11 -4 0 -26 14 -50 30 -24
16 -48 30 -54 30 -6 0 -11 5 -11 10 0 6 -6 10 -14 10 -8 0 -21 6 -28 13 -11
11 -92 65 -139 92 -142 83 -153 95 -139 145 4 14 4 33 1 43 -4 10 -4 43 -1 73
3 30 4 54 1 54 -4 0 -5 30 -4 67 3 113 3 127 2 143 0 8 0 33 1 55 1 22 1 45 0
50 -1 6 -2 27 -1 48 1 26 6 37 16 37 8 0 15 -4 15 -10 0 -5 4 -10 10 -10 9 0
50 -24 175 -105 177 -113 949 -593 979 -608 20 -10 36 -23 36 -28 0 -5 4 -9
10 -9 9 0 62 -32 160 -95 62 -40 349 -220 367 -230 10 -5 67 -40 125 -77 59
-38 112 -68 117 -68 5 0 11 -4 13 -8 4 -11 295 -192 308 -192 5 0 10 -4 10 -8
0 -5 12 -15 27 -23 15 -8 60 -35 99 -61 89 -58 105 -62 140 -30 10 10 33 25
49 34 17 8 124 74 239 146 115 73 213 132 217 132 5 0 9 5 9 10 0 6 4 10 9 10
5 0 84 47 175 105 91 58 170 105 176 105 5 0 10 4 10 9 0 5 14 14 30 21 17 7
30 16 30 21 0 5 5 9 10 9 6 0 48 24 93 53 46 28 92 57 103 64 10 7 50 31 87
55 37 24 76 48 85 53 55 32 338 210 342 215 3 4 12 10 20 14 18 8 32 17 135
81 44 27 82 53 83 57 2 5 8 8 12 8 5 0 114 66 242 146 293 185 289 182 315
193 11 5 24 15 28 21 11 18 14 8 15 -51z"/>
</g>
</svg>
