<svg aria-hidden="true" style="position: absolute; width: 0; height: 0; overflow: hidden;" version="1.1" xmlns="http://www.w3.org/2000/svg" xmlns:xlink="http://www.w3.org/1999/xlink">
<defs>
<symbol id="icon-logo" viewBox="0 0 40 32">
<path d="M36 0h-32c-2.2 0-4 1.8-4 4v24c0 2.2 1.8 4 4 4h32c2.2 0 4-1.8 4-4v-24c0-2.2-1.8-4-4-4v0zM36 8l-16 10-16-10v-4l16 10 16-10v4z"></path>
</symbol>
<symbol id="icon-logo1" viewBox="0 0 32 32">
<path d="M9.538 16.211v1.277c-0.313 0.301-0.739 0.486-1.208 0.486-0.078 0-0.155-0.005-0.23-0.015l0.009 0.001c-0.212-0.014-0.404-0.086-0.565-0.2l0.003 0.002c-0.151-0.102-0.256-0.263-0.281-0.45v-0.003q-0.064-0.498 0.562-0.766c0.504-0.177 1.088-0.296 1.693-0.331l0.017-0.001zM19.984 14.143c0.060-0.009 0.129-0.014 0.199-0.014 0.568 0 1.057 0.337 1.279 0.822l0.004 0.009v2.106c-0.234 0.496-0.73 0.833-1.304 0.833-0.076 0-0.15-0.006-0.223-0.017l0.008 0.001c-0.015 0.001-0.032 0.001-0.050 0.001-0.354 0-0.674-0.142-0.908-0.371v0c-0.314-0.351-0.506-0.817-0.506-1.328 0-0.063 0.003-0.125 0.009-0.187l-0.001 0.008q0-1.863 1.493-1.864zM13.983 14.143c0.060-0.009 0.129-0.014 0.199-0.014 0.568 0 1.057 0.337 1.278 0.822l0.004 0.009v2.106c-0.234 0.496-0.73 0.833-1.304 0.833-0.076 0-0.15-0.006-0.223-0.017l0.008 0.001c-0.015 0.001-0.032 0.001-0.050 0.001-0.353 0-0.674-0.142-0.907-0.371v0c-0.314-0.351-0.506-0.817-0.506-1.327 0-0.063 0.003-0.125 0.009-0.187l-0.001 0.008q0-1.863 1.493-1.864zM28.26 14.015c0.009 0 0.020 0 0.032 0 0.392 0 0.749 0.15 1.016 0.397l-0.001-0.001c0.286 0.235 0.468 0.587 0.472 0.982v0.001h-3.076c0.067-0.399 0.265-0.743 0.547-0.994l0.002-0.001c0.261-0.237 0.61-0.383 0.992-0.383 0.006 0 0.011 0 0.017 0h-0.001zM28.286 13.033c-0.030-0.001-0.066-0.002-0.102-0.002-0.74 0-1.409 0.304-1.889 0.793v0c-0.514 0.531-0.831 1.255-0.831 2.053 0 0.023 0 0.046 0.001 0.070v-0.003c-0.001 0.031-0.002 0.067-0.002 0.104 0 0.809 0.322 1.542 0.845 2.079l-0.001-0.001c0.534 0.537 1.272 0.869 2.089 0.869 0.029 0 0.057 0 0.086-0.001h-0.004c0.018 0 0.039 0.001 0.060 0.001 0.781 0 1.502-0.259 2.080-0.696l-0.009 0.006c0.068-0.051 0.068-0.11 0-0.179l-0.6-0.613c-0.051-0.051-0.115-0.051-0.192 0-0.345 0.248-0.775 0.396-1.241 0.396-0.008 0-0.016 0-0.024 0h0.001c-0.021 0.001-0.045 0.001-0.070 0.001-0.474 0-0.909-0.169-1.248-0.451l0.003 0.003c-0.292-0.264-0.489-0.629-0.535-1.039l-0.001-0.007h4.148c0.005 0.001 0.010 0.001 0.016 0.001 0.062 0 0.113-0.051 0.113-0.113 0-0.006 0-0.011-0.001-0.017v0.001l0.012-0.28c0.006-0.071 0.010-0.153 0.010-0.235 0-0.741-0.291-1.413-0.764-1.91l0.001 0.001c-0.475-0.511-1.151-0.83-1.901-0.83-0.018 0-0.036 0-0.054 0.001h0.003zM19.856 13.033c-0.028-0.001-0.062-0.002-0.095-0.002-0.769 0-1.448 0.387-1.853 0.977l-0.005 0.008c-0.369 0.527-0.589 1.182-0.589 1.888 0 0.036 0.001 0.072 0.002 0.108v-0.005c-0.002 0.038-0.002 0.082-0.002 0.127 0 0.723 0.23 1.392 0.622 1.938l-0.007-0.010c0.422 0.569 1.092 0.933 1.847 0.933 0.033 0 0.066-0.001 0.098-0.002h-0.005c0.036 0.002 0.079 0.003 0.122 0.003 0.557 0 1.070-0.188 1.479-0.505l-0.006 0.004v0.664q0 1.608-1.545 1.608c-0.56-0.046-1.050-0.313-1.389-0.712l-0.002-0.003c-0.022-0.024-0.054-0.038-0.089-0.038 0 0 0 0-0.001 0v0c-0.002 0-0.004 0-0.007 0-0.037 0-0.071 0.015-0.095 0.039l-0.6 0.6c-0.022 0.023-0.036 0.055-0.036 0.090 0 0.041 0.019 0.077 0.048 0.101v0q0.255 0.217 0.447 0.364t0.332 0.236c0.403 0.233 0.886 0.37 1.401 0.37 0.001 0 0.002 0 0.003 0v0c0.049 0.003 0.106 0.005 0.164 0.005 0.702 0 1.339-0.277 1.809-0.727l-0.001 0.001c0.437-0.508 0.703-1.175 0.703-1.903 0-0.074-0.003-0.147-0.008-0.219l0.001 0.010v-5.706c0.001-0.005 0.001-0.010 0.001-0.016 0-0.062-0.050-0.113-0.113-0.113-0.006 0-0.011 0-0.017 0.001h-0.88c-0.005-0.001-0.010-0.001-0.016-0.001-0.062 0-0.113 0.050-0.113 0.113 0 0.006 0 0.011 0.001 0.017v-0.001 0.255c-0.42-0.312-0.949-0.499-1.522-0.499-0.030 0-0.060 0.001-0.090 0.002h0.004zM13.855 13.033c-0.028-0.001-0.062-0.002-0.095-0.002-0.769 0-1.448 0.387-1.853 0.977l-0.005 0.008c-0.368 0.527-0.589 1.182-0.589 1.888 0 0.036 0.001 0.072 0.002 0.109v-0.005c-0.002 0.038-0.002 0.082-0.002 0.127 0 0.723 0.23 1.392 0.622 1.938l-0.007-0.010c0.422 0.569 1.092 0.933 1.847 0.933 0.033 0 0.066-0.001 0.098-0.002h-0.005c0.036 0.002 0.079 0.003 0.122 0.003 0.557 0 1.070-0.188 1.479-0.505l-0.006 0.004v0.664q0 1.608-1.545 1.608c-0.56-0.046-1.050-0.313-1.389-0.712l-0.002-0.003c-0.022-0.024-0.054-0.038-0.089-0.038 0 0 0 0-0.001 0v0c-0.002 0-0.004 0-0.007 0-0.037 0-0.071 0.015-0.096 0.039l-0.6 0.6c-0.022 0.023-0.036 0.055-0.036 0.090 0 0.041 0.019 0.078 0.049 0.101v0q0.255 0.217 0.447 0.364t0.332 0.236c0.403 0.233 0.886 0.37 1.401 0.37 0.001 0 0.002 0 0.003 0v0c0.049 0.003 0.106 0.005 0.164 0.005 0.702 0 1.339-0.277 1.809-0.727l-0.001 0.001c0.437-0.508 0.703-1.175 0.703-1.903 0-0.074-0.003-0.146-0.008-0.219l0.001 0.010v-5.706c0.001-0.005 0.001-0.010 0.001-0.016 0-0.062-0.050-0.113-0.113-0.113-0.006 0-0.011 0-0.017 0.001h-0.88c-0.005-0.001-0.010-0.001-0.016-0.001-0.062 0-0.113 0.050-0.113 0.113 0 0.006 0 0.011 0.001 0.017v-0.001 0.255c-0.42-0.312-0.949-0.499-1.522-0.499-0.030 0-0.061 0.001-0.091 0.002h0.004zM8.453 13.033c-0.769 0.010-1.476 0.262-2.052 0.684l0.010-0.007c-0.068 0.068-0.081 0.127-0.038 0.179l0.459 0.651c0.034 0.060 0.090 0.068 0.166 0.025 0.402-0.303 0.905-0.492 1.451-0.511h0.004c0.025-0.002 0.055-0.004 0.085-0.004 0.557 0 1.009 0.452 1.009 1.009 0 0.046-0.003 0.092-0.009 0.136l0.001-0.005c-0.687 0.056-1.318 0.165-1.929 0.323l0.078-0.017q-1.557 0.447-1.557 1.698c0 0.013-0.001 0.028-0.001 0.043 0 0.502 0.222 0.952 0.573 1.257l0.002 0.002c0.361 0.31 0.835 0.498 1.352 0.498 0.014 0 0.028 0 0.042 0h-0.002c0.030 0.001 0.065 0.002 0.1 0.002 0.503 0 0.969-0.159 1.35-0.428l-0.007 0.005v0.179c0 0.085 0.047 0.127 0.14 0.127h0.881c0.005 0.001 0.010 0.001 0.016 0.001 0.062 0 0.113-0.050 0.113-0.113 0-0.006 0-0.011-0.001-0.017v0.001-3.536c0.004-0.048 0.007-0.105 0.007-0.162 0-0.674-0.333-1.271-0.843-1.634l-0.006-0.004c-0.373-0.241-0.828-0.384-1.317-0.384-0.026 0-0.052 0-0.078 0.001h0.004zM23.678 10.186c-0.005-0.001-0.010-0.001-0.016-0.001-0.062 0-0.113 0.050-0.113 0.113 0 0.006 0 0.011 0.001 0.016v-0.001 8.438c-0.001 0.005-0.001 0.010-0.001 0.016 0 0.062 0.050 0.113 0.113 0.113 0.006 0 0.011 0 0.017-0.001h0.88c0.005 0.001 0.010 0.001 0.016 0.001 0.062 0 0.113-0.050 0.113-0.113 0-0.006 0-0.011-0.001-0.017v0.001-8.438c0.001-0.005 0.001-0.010 0.001-0.016 0-0.062-0.050-0.113-0.113-0.113-0.006 0-0.011 0-0.017 0.001h0.001zM1.132 10.186c-0.005-0.001-0.010-0.001-0.016-0.001-0.062 0-0.113 0.051-0.113 0.113 0 0.006 0 0.011 0.001 0.016v-0.001 8.438c-0.001 0.005-0.001 0.010-0.001 0.016 0 0.062 0.051 0.113 0.113 0.113 0.006 0 0.011 0 0.017-0.001h0.88c0.005 0.001 0.010 0.001 0.016 0.001 0.062 0 0.113-0.051 0.113-0.113 0-0.006 0-0.011-0.001-0.017v0.001-1.851l0.523-0.498 1.876 2.387c0.042 0.054 0.106 0.088 0.179 0.089h1.136c0.059 0 0.093-0.017 0.102-0.051 0.006-0.013 0.009-0.029 0.009-0.045 0-0.032-0.013-0.062-0.035-0.083v0l-2.476-3.076 2.375-2.297c0.015-0.018 0.024-0.041 0.024-0.067 0-0.018-0.004-0.034-0.012-0.049v0.001c-0.015-0.038-0.051-0.064-0.093-0.064-0.003 0-0.006 0-0.009 0v0h-1.174c-0.072 0.005-0.135 0.038-0.178 0.089v0l-2.246 2.272v-5.195c0.001-0.005 0.001-0.010 0.001-0.016 0-0.062-0.051-0.113-0.113-0.113-0.006 0-0.011 0-0.017 0.001h0.001z"></path>
</symbol>
<symbol id="icon-logo2" viewBox="0 0 130 32">
<path d="M39.744 12.779c1.489 0 2.696-1.207 2.696-2.696s-1.207-2.696-2.696-2.696-2.696 1.207-2.696 2.696c0 1.489 1.207 2.696 2.696 2.696zM128.708 21.992c-0.41-0.288-0.727-0.336-0.989 0.224-4.527 9.806-12.157 4.913-11.399 5.343 1.692-0.774 6.143-4.344 5.471-9.273-0.409-3.012-2.994-4.348-5.738-3.87-4.79 0.835-6.552 6.002-5.655 10.576 0.157 0.786 0.438 1.433 0.718 2.068-5.413 4.402-7.563-3.941-7.807-4.938-0.010-0.053 4.18-3.545 5.345-11.866 1.221-8.721-1.561-10.309-4.406-10.259-5.264 0.092-6.687 11.090-4.776 20.257-0.16 0.042-0.905 0.454-2.102 0.5-0.861-2.71-4.541-5.086-5.505-4.17-2.411 2.29 0.585 6.767 2.692 7.118-1.266 7.797-9.183 5.866-7.71-3.903 2.578-4.788 4.539-11.907 4.189-16.205-0.124-1.522-1.249-3.56-3.793-3.459-4.894 0.194-5.426 11.195-4.852 19.004-0.028-0.192-0.301 0.949-2.306 1.516-0.474-2.633-4.714-5.276-5.712-4.005-1.868 2.378 1.369 6.618 2.903 6.914-1.266 7.797-9.183 5.866-7.709-3.903 2.578-4.788 4.539-11.907 4.189-16.205-0.124-1.522-1.249-3.56-3.793-3.46-4.894 0.194-5.426 11.196-4.852 19.004-0.029-0.195-0.307 0.983-2.395 1.541-0.070-3.416-4.325-4.982-5.347-3.892-1.822 1.943 0.417 5.929 2.488 6.914-1.266 7.797-9.183 5.866-7.709-3.903 2.578-4.788 4.539-11.907 4.189-16.205-0.124-1.522-1.249-3.56-3.793-3.46-4.893 0.194-5.287 11.749-4.713 19.557-1.612 6.906-7.017 15.53-6.315-1.746 0.069-1.212 0.145-1.672-0.459-2.126-0.453-0.353-1.482-0.183-2.045-0.169-0.684 0.027-0.855 0.428-1.007 1.033-0.352 1.562-0.415 3.076-0.466 5.142-0.033 0.966-0.111 1.417-0.483 2.735s-2.492 3.726-3.653 3.323c-1.611-0.554-1.082-5.101-0.781-8.225 0.252-2.469-0.554-3.578-2.617-3.981-1.208-0.252-1.942-0.213-3.2-0.61-1.19-0.375-1.459-2.626-3.996-1.876-1.388 0.411-0.496 3.351-0.829 5.531-1.64 10.722-5.052 11.016-6.635 5.808 7.13-17.462 2.063-24.346-0.904-24.346-3.089 0-6.621 2.128-5.125 15.744-0.727-0.212-0.951-0.326-1.747-0.326-4.502 0-7.569 3.639-7.569 8.129s3.067 8.129 7.569 8.129c2.658 0 4.523-1.209 5.936-3.078 0.922 1.32 2.045 3.099 4.098 3.019 6.12-0.238 7.899-12.791 8.11-13.492 0.654 0.101 1.273 0.292 1.877 0.393 1.007 0.151 1.080 0.55 1.057 1.562-0.267 8.538 1.309 11.527 4.882 11.527 1.991 0 3.766-1.956 4.988-3.355 0.913 1.885 2.368 3.297 4.32 3.355 4.73 0.118 6.541-7.421 6.376-6.429-0.13 0.778 1.535 6.387 6.404 6.407 6.032 0.025 7.153-6.608 7.287-7.719 0.017-0.221 0.024-0.198 0 0l-0.005 0.067c1.915-0.356 2.903-1.383 2.903-1.383s1.538 9.137 7.233 9.035c5.915-0.107 7.030-6.103 7.176-7.272 0.019-0.277 0.031-0.245 0 0 0-0.005-0.001 0.007-0.001 0.019l-0.001 0.015c2.275-0.828 2.873-1.658 2.873-1.658s1.222 8.956 7.233 9.034c5.357 0.070 7.342-5.415 7.354-7.711 0.903 0.010 2.575-0.536 2.536-0.567 0 0 1.962 7.83 7.442 8.232 2.573 0.189 4.503-1.448 5.603-2.194 2.585 2.094 11.194 4.768 16.63-4.448 0.767-1.323-0.882-2.885-1.172-3.089zM7.352 28.683c-2.627 0-4.311-2.429-4.311-5.047s1.546-5.047 4.173-5.047c1.182 0 1.839 0.13 2.76 0.931 0.167 0.658 0.64 2.175 0.87 2.864 0.308 0.922 0.675 1.707 1.045 2.561-0.528 2.191-2.261 3.739-4.537 3.739zM13.752 19.596c-0.109-0.174-0.086-0.067-0.209-0.231-0.481-1.31-1.409-4.233-1.517-7.553-0.121-3.756 0.505-8.159 2.35-8.159 1.251 0 2.58 8.923-0.625 15.944zM50.734 15.683c-0.296-2.229-0.312-12.165 2.074-11.892 1.317 0.534-0.835 9.91-2.074 11.892zM68.153 15.683c-0.296-2.229-0.312-12.165 2.074-11.892 1.317 0.534-0.835 9.91-2.074 11.892zM85.433 15.821c-0.296-2.229-0.312-12.166 2.073-11.892 1.317 0.534-0.835 9.91-2.073 11.892zM104.51 3.209c2.181-0.226 2.091 9.298-2.287 15.31-0.565-2.173-1.43-14.564 2.287-15.311zM113.677 23.703c-0.7-3.538 1.109-5.862 2.975-6.117 0.652-0.104 1.597 0.318 1.786 1.108 0.31 1.489-0.045 3.697-4.221 6.498 0.006 0.024-0.384-0.701-0.54-1.489z"></path>
</symbol>
<symbol id="icon-logo3" viewBox="0 0 32 32">
<path d="M3.962 15.979c0-0.002 0-0.005 0-0.008 0-0.464-0.197-0.882-0.513-1.174l-0.001-0.001c-0.295-0.245-0.677-0.394-1.094-0.394-0.061 0-0.122 0.003-0.182 0.009l0.007-0.001h-0.249v3.143h0.249c0.051 0.005 0.11 0.008 0.169 0.008 0.417 0 0.801-0.145 1.103-0.388l-0.003 0.003c0.317-0.298 0.514-0.72 0.514-1.189 0-0.003 0-0.006 0-0.009v0zM4.917 15.986c-0.004 0.732-0.337 1.386-0.858 1.821l-0.004 0.003c-0.422 0.344-0.966 0.552-1.558 0.552-0.048 0-0.096-0.001-0.144-0.004h-1.346v-4.752h1.361c0.057-0.005 0.123-0.008 0.19-0.008 1.304 0 2.361 1.057 2.361 2.361 0 0.009 0 0.018 0 0.028v-0.001zM29.269 15.059c0-0.462-0.314-0.704-0.891-0.704h-0.285v1.44h0.271c0.591-0.001 0.905-0.259 0.905-0.736zM29.14 16.356l1.496 2.002h-1.14l-1.283-1.909h-0.121v1.909h-0.926v-4.752h1.375c1.068 0 1.682 0.514 1.682 1.403 0.002 0.029 0.004 0.063 0.004 0.097 0 0.635-0.469 1.161-1.079 1.25l-0.007 0.001zM30.675 13.798c0-0.036-0.026-0.054-0.075-0.054h-0.018v0.109h0.017c0.049 0 0.075-0.018 0.075-0.055zM30.682 13.913l0.137 0.172h-0.121l-0.117-0.162v0.162h-0.1v-0.417h0.134c0.101 0 0.157 0.045 0.157 0.129 0 0.002 0 0.004 0 0.006 0 0.054-0.038 0.1-0.089 0.11h-0.001zM23.923 18.358h2.629v-0.805h-1.702v-1.283h1.64v-0.805h-1.64v-1.055h1.702v-0.805h-2.629zM21.216 16.799l-1.267-3.192h-1.012l2.017 4.874h0.499l2.053-4.874h-1.005zM5.343 18.358h0.927v-4.752h-0.927zM30.922 13.877c-0.003-0.16-0.133-0.289-0.294-0.289s-0.294 0.132-0.294 0.294 0.131 0.294 0.294 0.294c0.083 0 0.158-0.034 0.211-0.089v0c0.051-0.053 0.083-0.125 0.083-0.204 0-0.002 0-0.004 0-0.005v0zM30.996 13.876c0 0.001 0 0.002 0 0.003 0 0.2-0.162 0.362-0.362 0.362s-0.362-0.162-0.362-0.362c0-0.001 0-0.002 0-0.003v0-0.004c0-0.006-0.001-0.013-0.001-0.019 0-0.2 0.162-0.362 0.362-0.362s0.362 0.162 0.362 0.362c0 0.008 0 0.016-0.001 0.024v-0.001zM8.537 15.43c-0.556-0.206-0.72-0.341-0.72-0.599 0-0.299 0.291-0.527 0.691-0.527 0.305 0.007 0.575 0.155 0.745 0.382l0.002 0.002 0.485-0.635c-0.366-0.327-0.852-0.527-1.384-0.527-0.004 0-0.008 0-0.012 0h0.001c-0.026-0.002-0.056-0.003-0.087-0.003-0.759 0-1.377 0.607-1.395 1.362v0.002c0 0.655 0.299 0.99 1.17 1.303 0.248 0.079 0.46 0.171 0.661 0.281l-0.019-0.010c0.167 0.101 0.277 0.282 0.277 0.489 0 0.001 0 0.002 0 0.003v0c-0.003 0.371-0.305 0.671-0.677 0.671-0.015 0-0.030 0-0.045-0.001h0.002c-0.005 0-0.012 0-0.018 0-0.437 0-0.815-0.256-0.99-0.627l-0.003-0.007-0.599 0.576c0.327 0.546 0.916 0.906 1.589 0.906 0.020 0 0.040 0 0.060-0.001h-0.003c0.032 0.002 0.069 0.004 0.107 0.004 0.846 0 1.532-0.686 1.532-1.532 0-0.012 0-0.023 0-0.034v0.002c-0.002-0.753-0.315-1.095-1.368-1.481zM12.726 13.499c-0.009 0-0.021 0-0.032 0-1.376 0-2.492 1.112-2.499 2.486v0.001c0 0.006 0 0.013 0 0.019 0 1.359 1.101 2.46 2.46 2.46 0.017 0 0.034 0 0.050 0h-0.002c0.001 0 0.001 0 0.002 0 0.423 0 0.823-0.102 1.175-0.283l-0.014 0.007v-1.091c-0.271 0.317-0.671 0.518-1.118 0.52v0c-0.013 0-0.029 0.001-0.045 0.001-0.858 0-1.553-0.695-1.553-1.553 0-0.031 0.001-0.061 0.003-0.091v0.004c-0.001-0.016-0.001-0.034-0.001-0.052 0-0.863 0.693-1.565 1.553-1.58h0.001c0.463 0.003 0.878 0.209 1.161 0.533l0.002 0.002v-1.091c-0.329-0.183-0.721-0.291-1.139-0.291-0.001 0-0.002 0-0.002 0v0zM19.224 16c0 1.396-1.132 2.528-2.528 2.528s-2.528-1.132-2.528-2.528c0-1.395 1.13-2.527 2.525-2.528h0.003c0 0 0 0 0 0 1.396 0 2.528 1.132 2.528 2.528 0 0 0 0 0 0v0z"></path>
</symbol>
<symbol id="icon-logo4" viewBox="0 0 278 32">
<path d="M227.912 7.799l-4.762 9.656h9.524l-4.762-9.656zM224.472 0.524h7.275l13.889 27.91h-7.935l-2.513-5.423h-14.55l-2.513 5.423h-7.937l14.284-27.91zM186.243 0.524v4.894h10.45v23.016h8.069v-23.016h10.45v-4.894h-28.968zM111.244 0.656h10.185l8.466 21.034 8.332-21.034h10.584v27.778h-7.277v-18.651l-7.672 18.651h-8.069l-7.407-18.651v18.651h-7.143v-27.778h0.002zM89.683-0.005c3.571 0 6.482 0.529 8.598 1.323 2.513 1.19 4.762 3.042 6.217 5.161 1.57 2.389 2.507 5.316 2.513 8.462v0.002c0 4.632-1.323 8.333-4.233 10.584-3.042 2.381-7.407 3.836-12.434 3.836-4.63 0-8.73-1.455-11.773-3.571-2.778-2.513-4.63-6.217-4.63-10.847 0-2.778 0.661-5.688 1.852-7.937 0.397-1.058 1.455-2.381 2.778-3.439 1.587-1.058 3.307-1.984 4.894-2.513 1.72-0.531 3.968-1.060 6.217-1.060zM90.080 5.286c-1.19 0-2.381 0.397-3.307 0.661-0.794 0.397-1.72 0.926-2.513 1.587-0.661 0.661-1.19 1.587-1.455 2.249-0.661 1.455-0.926 3.307-0.926 5.027 0 3.042 0.926 5.423 2.381 7.011 1.587 1.323 3.704 2.249 6.085 2.249 2.646 0 5.026-0.926 6.614-2.511 1.455-1.325 2.116-3.706 2.116-6.746 0-2.116-0.529-3.968-1.323-5.423-0.661-1.323-1.852-2.513-3.176-3.307-1.331-0.504-2.871-0.795-4.478-0.795-0.006 0-0.012 0-0.018 0h0.001zM71.032 28.831h-12.169c-3.836 0-10.571-1.214-13.36-5.69-2.791-4.473-2.447-11.576-0.265-16.004 2.183-4.429 8.613-6.614 13.624-6.614h12.169v5.556h-12.169c-5.159 0-8.071 3.307-8.071 9.259 0 4.233 3.706 8.201 8.598 8.201h11.64v5.291h0.002zM248.148 0.524h10.185c5.556 0 10.055 0 11.773 0.265 1.852 0.397 4.365 2.513 5.161 3.704 0.926 1.189 1.852 3.307 1.852 4.894s-1.058 3.836-1.455 4.497c-0.796 0.926-2.381 2.778-4.894 3.571l7.009 10.981h-8.464l-6.878-10.187h-6.614v10.187h-7.674v-27.912zM255.822 6.476v6.349h5.82c2.249 0 4.762-0.265 6.217-0.794 0.926-0.397 1.984-1.323 1.984-2.381s-0.796-2.116-1.984-2.646c-1.19-0.529-4.764-0.529-6.217-0.529h-5.82zM165.872 12.032h6.085c5.899 0 11.903 1.944 11.903 7.275 0 6.941-2.644 9.129-9.524 9.129h-21.030v-4.764h20.106s3.412 0.050 3.412-3.165-2.488-3.052-4.734-3.448h-6.616c-2.513 0-4.099-0.132-6.614-0.926-2.381-1.455-5.291-3.175-5.291-6.746 0-6.217 3.175-8.863 10.053-8.863h20.37v4.63h-20.104c-2.644 0.265-3.175 1.323-3.175 2.646 0 1.587-0.007 2.702 1.852 3.571s0.796 0.397 3.307 0.661zM0 28.831v3.041l20.635-20.633h-20.635v2.116h16.005l-16.005 15.476zM10.582 0.524h-2.778l8.201 7.804h-16.005v2.116h20.635l-10.053-9.921zM14.286 0.524l4.63 4.762v-4.762h2.116v9.392l-9.392-9.392h2.646zM24.074 0.524h-2.116v9.392l9.392-9.392h-2.513l-4.762 4.762v-4.762zM21.958 32.005h2.116v-15.609l7.275 7.672v-2.778l-9.392-9.524c-0.132 6.746 0 13.492 0 20.238zM18.915 32.005v-15.609l-15.212 15.609h-2.778l20.106-20.238v20.238h-2.116zM31.348 4.095l-4.365 4.233h4.365v2.116h-8.73l8.73-8.863v2.513zM31.348 13.354h-4.365l4.365 4.233v2.513l-8.728-8.863h8.73v2.116h-0.002z"></path>
</symbol>
<symbol id="icon-logo5" viewBox="0 0 206 32">
<path d="M13.143 16.067c0-6.846-4.66-12.636-11.070-14.549l-2.073-0.001v29.108h2.040c6.428-1.903 11.104-7.701 11.104-14.559z"></path>
<path d="M16.49 16.067c0 6.869-4.692 12.639-11.137 14.532l17.491 0.018v-29.088h-17.39c6.393 1.923 11.037 7.705 11.037 14.538zM136.331 8.482c2.614 0 4.733-1.751 4.733-3.91s-2.119-3.91-4.733-3.91-4.733 1.75-4.733 3.91c0 2.159 2.119 3.91 4.733 3.91zM169.941 9.883c0.618-0.109 0.728-0.8 0.219-0.8h-8.476c-0.473 0-0.655 0.691 0 0.764 3.201 0.182 2.801 3.71 2.401 4.729l-4.147 7.784-5.893-9.712c-1.273-2.073 0.509-2.619 0.909-2.801s0.509-0.764-0.037-0.764h-13.531c-0.546 0-0.4 0.618 0 0.727 0.946 0.291 1.601 1.273 2.073 1.964l11.785 19.351c0.437 0.764 1.31 0.546 1.637-0.036l10.258-17.896c0.982-1.673 2.001-3.128 2.801-3.31z"></path>
<path d="M140.696 26.179v-17.46l-9.861 1.070c-0.622 0.088-0.667 0.53-0.324 0.857 0.837 0.8 1.673 1.491 1.673 4.038v11.494c0 1.544-0.343 2.122-1.528 3.391-1.185-1.269-1.528-1.847-1.528-3.391v-9.894c0-7.129-5.165-8.366-8.657-8.366s-5.674 1.455-7.13 3.565v-2.764l-9.861 1.070c-0.622 0.088-0.666 0.53-0.324 0.857 0.837 0.8 1.673 1.491 1.673 4.038v11.494c0 1.746-0.436 2.255-2.037 3.928-0.219 0.182-0.255 0.509 0.145 0.509h12.294c0.4 0 0.364-0.327 0.146-0.509-1.601-1.673-2.037-2.182-2.037-3.928v-10.185c0-3.492 2.11-5.529 4.001-5.529s3.274 2.11 3.274 4.219v11.494c0 1.746-0.437 2.255-2.037 3.928-0.219 0.182-0.255 0.509 0.145 0.509h23.862c0.4 0 0.363-0.327 0.145-0.509-1.601-1.673-2.038-2.182-2.038-3.928zM93.555 12.284v-3.564l-9.861 1.070c-0.622 0.088-0.666 0.53-0.324 0.857 0.837 0.8 1.673 1.491 1.673 4.038v11.494c0 1.62-0.377 2.177-1.71 3.585-1.332-1.408-1.71-1.965-1.71-3.585v-11.058c0-6.038-7.202-6.984-11.713-6.984s-8.221 0.655-10.985 2.619l1.222 5.015c0.124 0.296 0.357 0.285 0.477 0.018 2.238-4.393 4.653-6.049 8.195-6.015 2.91 0.036 4.292 2.364 4.292 4.911v2.364c-3.121 0-15.001 0.544-15.058 7.263l-1.24-2.303c-0.406-0.812-0.799-0.559-0.98 0.278-0.836 3.012-2.735 5.207-5.294 6.923-1.654 1.044-5.755 1.72-8.493 0.316-3.798-1.948-5.747-6.548-5.759-11.713s1.685-9.675 4.231-11.567 6.62-1.964 9.067-0.32c2.965 1.764 3.974 3.973 4.936 6.747 0.111 0.339 0.359 0.31 0.453-0.021l1.57-6.147c-2.53-1.633-5.929-3.187-11.952-3.18-11.276 0.012-18.272 6.502-18.272 14.343s5.322 14.366 18.49 14.343c6.258-0.011 10.417-1.92 13.479-5.362 1.047 4.545 5.307 4.768 7.909 4.768 2.983 0 5.893-0.291 7.348-3.056 0.219 0.655 0.509 1.819 0.873 2.255h21.025c0.4 0 0.364-0.327 0.145-0.509-1.601-1.673-2.037-2.182-2.037-3.928v-8.075c0-3.783 1.818-5.456 3.492-5.311s1.528 2.91 1.455 3.419c-0.073 0.509 0.437 0.655 0.582 0.291l3.565-7.13c-2.692-2.692-8.148 0.8-9.093 2.91zM73.113 25.379c-0.073 2.401-1.819 4.147-3.128 4.074-1.162-0.064-2.837-1.236-2.764-4.656s1.564-5.856 5.893-6.183v6.766zM206.024 30.108c-1.601-1.673-2.037-2.182-2.037-3.928v-26.19l-9.861 1.071c-0.622 0.088-0.667 0.529-0.324 0.857 0.837 0.8 1.673 1.491 1.673 4.037v20.224c0 1.495-0.323 2.085-1.418 3.273-1.097-1.188-1.419-1.778-1.419-3.273v-11.058c0-6.038-7.202-6.984-11.712-6.984s-8.221 0.655-10.985 2.619l1.222 5.015c0.124 0.296 0.357 0.285 0.477 0.018 2.238-4.393 4.653-6.049 8.195-6.015 2.91 0.036 4.292 2.364 4.292 4.911v2.364c-3.128 0-15.059 0.546-15.059 7.311s5.165 7.057 8.148 7.057c2.983 0 5.893-0.291 7.348-3.056 0.219 0.655 0.509 1.819 0.873 2.255h20.442c0.4 0 0.363-0.327 0.145-0.509zM184.127 25.379c-0.073 2.401-1.819 4.147-3.128 4.074-1.162-0.064-2.837-1.236-2.764-4.656s1.564-5.856 5.893-6.183v6.766z"></path>
</symbol>
</defs>
</svg>
